<svg id="facebook_logo" xmlns="http://www.w3.org/2000/svg" width="33" height="33" viewBox="0 0 33 33">
  <path id="Path_7" data-name="Path 7" d="M16.5,33h0A16.5,16.5,0,0,1,0,16.5H0A16.5,16.5,0,0,1,16.5,0h0A16.5,16.5,0,0,1,33,16.5h0A16.5,16.5,0,0,1,16.5,33Z" fill="#ff7070"/>
  <path id="f" d="M353.245,179.114V166.333h4.29l.643-4.98h-4.934v-3.181c0-1.442.4-2.426,2.468-2.426h2.637v-4.452a35.781,35.781,0,0,0-3.845-.195c-3.8,0-6.405,2.32-6.405,6.583v3.673h-4.3v4.98h4.3v12.778Z" transform="translate(-332.455 -146.114)" fill="#fef8f8"/>
</svg>
