<svg xmlns="http://www.w3.org/2000/svg" width="33" height="33" viewBox="0 0 33 33">
  <g id="instagram_logo_2" transform="translate(0 0.261)">
    <g id="Group_1" data-name="Group 1" transform="translate(0 -0.261)">
      <circle id="Ellipse_6" data-name="Ellipse 6" cx="16.5" cy="16.5" r="16.5" fill="#ff7070"/>
    </g>
    <g id="Group_5" data-name="Group 5" transform="translate(6.168 6.012)">
      <g id="Group_2" data-name="Group 2">
        <path id="Path_10" data-name="Path 10" d="M38.991,44.559H29.568A5.574,5.574,0,0,1,24,38.991V29.568A5.574,5.574,0,0,1,29.568,24h9.423a5.574,5.574,0,0,1,5.568,5.568v9.423A5.574,5.574,0,0,1,38.991,44.559ZM29.568,25.713a3.859,3.859,0,0,0-3.855,3.855v9.423a3.859,3.859,0,0,0,3.855,3.855h9.423a3.859,3.859,0,0,0,3.855-3.855V29.568a3.859,3.859,0,0,0-3.855-3.855Z" transform="translate(-24 -24)" fill="#fff"/>
      </g>
      <g id="Group_3" data-name="Group 3" transform="translate(5.14 5.14)">
        <path id="Path_11" data-name="Path 11" d="M49.14,54.28a5.14,5.14,0,1,1,5.14-5.14A5.146,5.146,0,0,1,49.14,54.28Zm0-8.566a3.426,3.426,0,1,0,3.426,3.426A3.43,3.43,0,0,0,49.14,45.713Z" transform="translate(-44 -44)" fill="#fff"/>
      </g>
      <g id="Group_4" data-name="Group 4" transform="translate(14.563 3.641)">
        <circle id="Ellipse_7" data-name="Ellipse 7" cx="1.178" cy="1.178" r="1.178" fill="#fff"/>
      </g>
    </g>
  </g>
</svg>
