<svg xmlns="http://www.w3.org/2000/svg" width="32.505" height="32.505" viewBox="0 0 32.505 32.505">
  <g id="linkedin_logo" transform="translate(-71.598 -100.598)">
    <g id="Ellipse_9" data-name="Ellipse 9" transform="translate(74.01 103.456)" fill="#fff" stroke="#707070" stroke-width="1">
      <ellipse cx="13.841" cy="13.394" rx="13.841" ry="13.394" stroke="none"/>
      <ellipse cx="13.841" cy="13.394" rx="13.341" ry="12.894" fill="none"/>
    </g>
    <g id="linkedin_logo-2" data-name="linkedin_logo" transform="translate(71.598 100.598)">
      <path id="Path_8" data-name="Path 8" d="M270.736,213.872v-.034c-.007.011-.016.023-.023.034Z" transform="translate(-253.5 -200.338)" fill="#ff7070"/>
      <path id="Path_9" data-name="Path 9" d="M23.351,7.1A16.253,16.253,0,1,0,39.6,23.351,16.253,16.253,0,0,0,23.351,7.1ZM18.875,29.672H15.36V19.1h3.514ZM17.118,17.656h-.024A1.832,1.832,0,1,1,17.141,14a1.833,1.833,0,1,1-.023,3.654ZM31.55,29.672H28.035V24.015c0-1.421-.509-2.391-1.781-2.391a1.924,1.924,0,0,0-1.8,1.286,2.4,2.4,0,0,0-.116.857v5.9H20.819s.047-9.58,0-10.572h3.515v1.5A3.49,3.49,0,0,1,27.5,18.851c2.313,0,4.047,1.511,4.048,4.758v6.063Z" transform="translate(-7.098 -7.098)" fill="#ff7070"/>
    </g>
  </g>
</svg>
