<svg id="youtube_logo" xmlns="http://www.w3.org/2000/svg" width="32.505" height="32.51" viewBox="0 0 32.505 32.51">
  <g id="Ellipse_8" data-name="Ellipse 8" transform="translate(1.253 2.51)" fill="#fff" stroke="#707070" stroke-width="1">
    <circle cx="15" cy="15" r="15" stroke="none"/>
    <circle cx="15" cy="15" r="14.5" fill="none"/>
  </g>
  <path id="youtube_logo-2" data-name="youtube_logo" d="M16.253,0A16.255,16.255,0,1,1,0,16.255,16.262,16.262,0,0,1,16.253,0Zm9.733,11.364a2.544,2.544,0,0,0-1.8-1.8c-1.584-.425-7.937-.425-7.937-.425s-6.353,0-7.937.425a2.545,2.545,0,0,0-1.8,1.8,26.454,26.454,0,0,0-.424,4.891,26.451,26.451,0,0,0,.424,4.891,2.545,2.545,0,0,0,1.8,1.8c1.585.424,7.937.424,7.937.424s6.353,0,7.937-.424a2.544,2.544,0,0,0,1.8-1.8,26.451,26.451,0,0,0,.424-4.891A26.454,26.454,0,0,0,25.986,11.364ZM14.221,19.3v-6.1L19.5,16.255Z" fill="#ff7070" fill-rule="evenodd"/>
</svg>
