<?xml version="1.0" encoding="iso-8859-1"?>
<!-- Generator: Adobe Illustrator 19.0.0, SVG Export Plug-In . SVG Version: 6.00 Build 0)  -->
<svg version="1.1" id="Layer_1" xmlns="http://www.w3.org/2000/svg" xmlns:xlink="http://www.w3.org/1999/xlink" x="0px" y="0px"
	 viewBox="0 0 330.088 330.088" style="enable-background:new 0 0 330.088 330.088;" xml:space="preserve">
<path id="XMLID_815_" d="M319.897,248.225c-9.188-13.918-24.021-27.225-41.767-37.469c-19.634-11.336-40.241-17.579-58.026-17.579
	c-2.325,0-4.576,0.115-6.753,0.333c-2.055-11.529-8.14-21.676-16.752-28.924c10.839-15.001,17.527-37.996,17.527-64.687
	c0-47.41-21.101-83.161-49.081-83.161c-27.982,0-49.082,35.752-49.082,83.161c0,26.691,6.689,49.686,17.527,64.687
	c-8.612,7.247-14.697,17.395-16.752,28.924c-2.176-0.218-4.426-0.333-6.751-0.333c-17.785,0-38.394,6.243-58.029,17.579
	c-17.745,10.245-32.578,23.552-41.766,37.469c-11.225,17.001-13.253,33.557-5.712,46.617c6.89,11.934,20.575,18.506,38.534,18.506
	c0.001,0,0,0,0.001,0c17.784,0,38.392-6.243,58.027-17.579c23.102-13.338,39.667-30.617,47.244-47.496
	c5.232,1.906,10.876,2.949,16.759,2.949c5.854,0,11.47-1.034,16.68-2.923c1.496,3.301,3.341,6.641,5.558,9.999
	c9.189,13.917,24.021,27.224,41.766,37.469c19.634,11.336,40.242,17.58,58.027,17.58c0.002,0-0.001,0,0.001,0
	c17.956,0,31.643-6.573,38.529-18.504C333.149,281.784,331.122,265.227,319.897,248.225z M145.963,99.9
	c0-34.532,13.544-53.161,19.082-53.161c5.538,0,19.081,18.629,19.081,53.161c0,34.532-13.544,53.16-19.081,53.16
	C159.507,153.06,145.963,134.431,145.963,99.9z M86.041,269.79c-14.926,8.618-30.609,13.56-43.027,13.56
	c-7.234,0-11.578-1.817-12.553-3.507c-0.974-1.687-0.509-7.098,4.767-15.087c6.576-9.96,18.141-20.172,31.731-28.017
	c14.926-8.618,30.61-13.56,43.029-13.56c7.233,0,11.577,1.817,12.551,3.504C125.306,231.479,115.946,252.524,86.041,269.79z
	 M145.963,202.142c0-10.522,8.56-19.082,19.082-19.082s19.081,8.56,19.081,19.082c0,10.522-8.559,19.082-19.081,19.082
	S145.963,212.664,145.963,202.142z M299.626,279.844c-0.974,1.688-5.316,3.505-12.55,3.505c-12.418,0-28.102-4.943-43.027-13.561
	c-13.589-7.846-25.154-18.058-31.73-28.017c-5.275-7.99-5.741-13.401-4.766-15.089c0.974-1.688,5.317-3.505,12.551-3.505
	c12.418,0,28.102,4.942,43.026,13.56c13.59,7.846,25.155,18.057,31.732,28.017C300.136,272.744,300.602,278.155,299.626,279.844z"/>
<g>
</g>
<g>
</g>
<g>
</g>
<g>
</g>
<g>
</g>
<g>
</g>
<g>
</g>
<g>
</g>
<g>
</g>
<g>
</g>
<g>
</g>
<g>
</g>
<g>
</g>
<g>
</g>
<g>
</g>
</svg>
